<svg viewBox="0 0 1253 291" xmlns="http://www.w3.org/2000/svg" xmlns:xlink="http://www.w3.org/1999/xlink" aria-hidden="true"><title>Wealthbox Logo</title><defs><path d="M0 0h34.608l23.69 102.176L82.4.824h32.548l25.132 101.352L162.328 0h32.96l-39.964 147.084h-29.87L98.056 38.316 71.482 147.084H42.436L0 0zm286.288 113.506c-1.923 12.085-6.764 21.252-14.523 27.501-7.76 6.249-19.055 9.373-33.887 9.373-17.853 0-31.278-4.944-40.273-14.832-8.995-9.888-13.493-23.896-13.493-42.024 0-9.064 1.305-17.132 3.914-24.205 2.61-7.073 6.283-13.081 11.021-18.025 4.738-4.944 10.403-8.686 16.995-11.227 6.592-2.54 13.87-3.811 21.836-3.811 16.48 0 28.874 4.738 37.183 14.214 8.309 9.476 12.463 22.248 12.463 38.316v11.536h-74.572c.275 8.652 2.472 15.416 6.592 20.291 4.12 4.875 10.3 7.313 18.54 7.313 11.399 0 18.128-4.807 20.188-14.42h28.016zM259.714 81.37c0-7.416-1.82-13.184-5.459-17.304-3.64-4.12-9.304-6.18-16.995-6.18-3.845 0-7.21.618-10.094 1.854-2.884 1.236-5.322 2.918-7.313 5.047-1.991 2.129-3.536 4.6-4.635 7.416-1.099 2.815-1.717 5.871-1.854 9.167h46.35zm107.3 52.118c-4.257 4.807-9.03 8.72-14.317 11.742-5.287 3.021-12.12 4.532-20.497 4.532-4.807 0-9.373-.618-13.699-1.854-4.326-1.236-8.103-3.159-11.33-5.768-3.227-2.61-5.802-5.94-7.725-9.991-1.923-4.051-2.884-8.892-2.884-14.523 0-7.416 1.648-13.459 4.944-18.128 3.296-4.67 7.622-8.309 12.978-10.918 5.356-2.61 11.364-4.463 18.025-5.562a165.104 165.104 0 0 1 20.291-2.06l13.802-.618v-5.356c0-6.592-1.82-11.124-5.459-13.596-3.64-2.472-7.931-3.708-12.875-3.708-11.399 0-17.922 4.326-19.57 12.978l-26.368-2.472c1.923-11.261 6.867-19.398 14.832-24.411 7.965-5.013 18.677-7.519 32.136-7.519 8.24 0 15.244.996 21.012 2.987 5.768 1.991 10.403 4.841 13.905 8.549 3.502 3.708 6.043 8.206 7.622 13.493 1.58 5.287 2.369 11.227 2.369 17.819v67.98h-27.192v-13.596zm-.618-34.402l-12.772.618c-6.043.275-10.918.893-14.626 1.854-3.708.961-6.558 2.163-8.549 3.605-1.991 1.442-3.33 3.124-4.017 5.047-.687 1.923-1.03 4.051-1.03 6.386 0 3.57 1.236 6.386 3.708 8.446 2.472 2.06 5.905 3.09 10.3 3.09 7.416 0 13.459-1.717 18.128-5.15 2.61-1.923 4.738-4.36 6.386-7.313 1.648-2.953 2.472-6.626 2.472-11.021v-5.562zM408.926 0h28.84v147.084h-28.84V0zm53.182 62.006h-16.892V39.552h16.892V10.918h28.84v28.634h24.72v22.454h-24.72v49.646c0 5.63 1.167 9.442 3.502 11.433 2.335 1.991 5.356 2.987 9.064 2.987 1.923 0 3.88-.103 5.871-.309a34.103 34.103 0 0 0 5.871-1.133l4.12 21.218c-3.983 1.236-7.862 2.094-11.639 2.575-3.777.48-7.382.721-10.815.721-11.81 0-20.566-2.815-26.265-8.446-5.7-5.63-8.549-15.107-8.549-28.428V62.006zM529.59 0h28.84v53.148c4.257-5.768 9.201-10.025 14.832-12.772 5.63-2.747 11.536-4.12 17.716-4.12 12.223 0 21.287 3.193 27.192 9.579 5.905 6.386 8.858 16.446 8.858 30.179v71.07h-28.84V79.928c0-7.553-1.442-12.703-4.326-15.45-2.884-2.747-6.73-4.12-11.536-4.12-3.708 0-6.901.55-9.579 1.648-2.678 1.099-5.184 2.678-7.519 4.738-1.923 1.923-3.536 4.223-4.841 6.901-1.305 2.678-1.957 5.596-1.957 8.755v64.684h-28.84V0zm109.952 0h28.84v52.53c8.103-10.85 19.09-16.274 32.96-16.274 14.97 0 26.162 5.081 33.578 15.244 7.416 10.163 11.124 24.102 11.124 41.818 0 8.515-1.064 16.274-3.193 23.278-2.129 7.004-5.219 13.012-9.27 18.025-4.051 5.013-8.961 8.892-14.729 11.639-5.768 2.747-12.291 4.12-19.57 4.12a43.554 43.554 0 0 1-16.686-3.296c-5.356-2.197-10.369-6.18-15.038-11.948v11.948h-28.016V0zm28.634 94.142c0 7.004.584 12.6 1.751 16.789 1.167 4.189 3.056 7.588 5.665 10.197 2.747 2.472 5.528 4.086 8.343 4.841a32.854 32.854 0 0 0 8.549 1.133c3.159 0 6.18-.618 9.064-1.854 2.884-1.236 5.39-3.193 7.519-5.871 2.129-2.678 3.811-6.146 5.047-10.403 1.236-4.257 1.854-9.407 1.854-15.45 0-6.317-.584-11.605-1.751-15.862-1.167-4.257-2.781-7.725-4.841-10.403-2.06-2.678-4.498-4.6-7.313-5.768-2.815-1.167-5.802-1.751-8.961-1.751-3.57 0-6.66.48-9.27 1.442-2.61.961-5.15 2.472-7.622 4.532-2.747 2.61-4.772 5.905-6.077 9.888-1.305 3.983-1.957 9.064-1.957 15.244v3.296zm140.32 56.238c-17.304 0-30.694-4.944-40.17-14.832-9.476-9.888-14.214-24.033-14.214-42.436 0-8.79 1.27-16.72 3.811-23.793 2.54-7.073 6.18-13.047 10.918-17.922 4.738-4.875 10.472-8.618 17.201-11.227 6.73-2.61 14.214-3.914 22.454-3.914 8.377 0 15.93 1.305 22.66 3.914 6.73 2.61 12.463 6.352 17.201 11.227 4.738 4.875 8.343 10.85 10.815 17.922 2.472 7.073 3.708 15.004 3.708 23.793 0 8.927-1.27 16.926-3.811 23.999-2.54 7.073-6.18 13.081-10.918 18.025-4.738 4.944-10.472 8.72-17.201 11.33-6.73 2.61-14.214 3.914-22.454 3.914zm0-23.072c8.24 0 14.386-2.953 18.437-8.858 4.051-5.905 6.077-14.351 6.077-25.338s-2.026-19.364-6.077-25.132c-4.051-5.768-10.197-8.652-18.437-8.652-8.24 0-14.386 2.884-18.437 8.652-4.051 5.768-6.077 14.145-6.077 25.132 0 11.124 1.991 19.604 5.974 25.441s10.163 8.755 18.54 8.755zm86.03-35.432L859.3 39.552h33.99l18.334 30.694 20.6-30.694H962.3l-34.814 50.676 37.492 56.856h-33.372l-21.836-35.02-22.866 35.02h-31.312l38.934-55.208z" id="a"></path><path d="M120.084 2.146a16 16 0 0 1 16.009 0L248.169 66.81a15.997 15.997 0 0 1 8.006 13.856v129.326c0 5.718-3.053 11-8.006 13.857l-112.074 64.667a16.024 16.024 0 0 1-16.013 0L8.005 223.85A15.999 15.999 0 0 1 0 209.992V80.666c0-5.716 3.052-11 8.005-13.856L120.084 2.146zm4.003 251.92a8.017 8.017 0 0 0 8.003 0l88.06-50.806a8 8 0 0 0 4.003-6.928V94.729a7.999 7.999 0 0 0-4.003-6.93l-88.06-50.802a7.996 7.996 0 0 0-8.005 0L36.025 87.8a7.995 7.995 0 0 0-4.003 6.93v101.603c0 2.858 1.525 5.5 4.003 6.928l88.062 50.805zm52.033-80.823V80.856l30.02 17.317a4.003 4.003 0 0 1 2.002 3.466v87.76a4 4 0 0 1-2.001 3.467l-30.02 17.32-48.032-27.715-48.034 27.715-30.02-17.32a4 4 0 0 1-2.002-3.466v-87.761c0-1.43.762-2.75 2.001-3.466l30.02-17.317v92.39l48.035-27.716 48.031 27.713z" id="c"></path></defs><g fill="none" fill-rule="evenodd"><path d="M288 72h34.608l23.69 102.176L370.4 72.824h32.548l25.132 101.352L450.328 72h32.96l-39.964 147.084h-29.87l-27.398-108.768-26.574 108.768h-29.046L288 72zm286.288 113.506c-1.923 12.085-6.764 21.252-14.523 27.501-7.76 6.249-19.055 9.373-33.887 9.373-17.853 0-31.278-4.944-40.273-14.832-8.995-9.888-13.493-23.896-13.493-42.024 0-9.064 1.305-17.132 3.914-24.205 2.61-7.073 6.283-13.081 11.021-18.025 4.738-4.944 10.403-8.686 16.995-11.227 6.592-2.54 13.87-3.811 21.836-3.811 16.48 0 28.874 4.738 37.183 14.214 8.309 9.476 12.463 22.248 12.463 38.316v11.536h-74.572c.275 8.652 2.472 15.416 6.592 20.291 4.12 4.875 10.3 7.313 18.54 7.313 11.399 0 18.128-4.807 20.188-14.42h28.016zm-26.574-32.136c0-7.416-1.82-13.184-5.459-17.304-3.64-4.12-9.304-6.18-16.995-6.18-3.845 0-7.21.618-10.094 1.854-2.884 1.236-5.322 2.918-7.313 5.047-1.991 2.129-3.536 4.6-4.635 7.416-1.099 2.815-1.717 5.871-1.854 9.167h46.35zm107.3 52.118c-4.257 4.807-9.03 8.72-14.317 11.742-5.287 3.021-12.12 4.532-20.497 4.532-4.807 0-9.373-.618-13.699-1.854-4.326-1.236-8.103-3.159-11.33-5.768-3.227-2.61-5.802-5.94-7.725-9.991-1.923-4.051-2.884-8.892-2.884-14.523 0-7.416 1.648-13.459 4.944-18.128 3.296-4.67 7.622-8.309 12.978-10.918 5.356-2.61 11.364-4.463 18.025-5.562a165.104 165.104 0 0 1 20.291-2.06l13.802-.618v-5.356c0-6.592-1.82-11.124-5.459-13.596-3.64-2.472-7.931-3.708-12.875-3.708-11.399 0-17.922 4.326-19.57 12.978l-26.368-2.472c1.923-11.261 6.867-19.398 14.832-24.411 7.965-5.013 18.677-7.519 32.136-7.519 8.24 0 15.244.996 21.012 2.987 5.768 1.991 10.403 4.841 13.905 8.549 3.502 3.708 6.043 8.206 7.622 13.493 1.58 5.287 2.369 11.227 2.369 17.819v67.98h-27.192v-13.596zm-.618-34.402l-12.772.618c-6.043.275-10.918.893-14.626 1.854-3.708.961-6.558 2.163-8.549 3.605-1.991 1.442-3.33 3.124-4.017 5.047-.687 1.923-1.03 4.051-1.03 6.386 0 3.57 1.236 6.386 3.708 8.446 2.472 2.06 5.905 3.09 10.3 3.09 7.416 0 13.459-1.717 18.128-5.15 2.61-1.923 4.738-4.36 6.386-7.313 1.648-2.953 2.472-6.626 2.472-11.021v-5.562zM696.926 72h28.84v147.084h-28.84V72zm53.182 62.006h-16.892v-22.454h16.892V82.918h28.84v28.634h24.72v22.454h-24.72v49.646c0 5.63 1.167 9.442 3.502 11.433 2.335 1.991 5.356 2.987 9.064 2.987 1.923 0 3.88-.103 5.871-.309a34.103 34.103 0 0 0 5.871-1.133l4.12 21.218c-3.983 1.236-7.862 2.094-11.639 2.575-3.777.48-7.382.721-10.815.721-11.81 0-20.566-2.815-26.265-8.446-5.7-5.63-8.549-15.107-8.549-28.428v-50.264zM817.59 72h28.84v53.148c4.257-5.768 9.201-10.025 14.832-12.772 5.63-2.747 11.536-4.12 17.716-4.12 12.223 0 21.287 3.193 27.192 9.579 5.905 6.386 8.858 16.446 8.858 30.179v71.07h-28.84v-67.156c0-7.553-1.442-12.703-4.326-15.45-2.884-2.747-6.73-4.12-11.536-4.12-3.708 0-6.901.55-9.579 1.648-2.678 1.099-5.184 2.678-7.519 4.738-1.923 1.923-3.536 4.223-4.841 6.901-1.305 2.678-1.957 5.596-1.957 8.755v64.684h-28.84V72zm109.952 0h28.84v52.53c8.103-10.85 19.09-16.274 32.96-16.274 14.97 0 26.162 5.081 33.578 15.244 7.416 10.163 11.124 24.102 11.124 41.818 0 8.515-1.064 16.274-3.193 23.278-2.129 7.004-5.219 13.012-9.27 18.025-4.051 5.013-8.961 8.892-14.729 11.639-5.768 2.747-12.291 4.12-19.57 4.12a43.554 43.554 0 0 1-16.686-3.296c-5.356-2.197-10.369-6.18-15.038-11.948v11.948h-28.016V72zm28.634 94.142c0 7.004.584 12.6 1.751 16.789 1.167 4.189 3.056 7.588 5.665 10.197 2.747 2.472 5.528 4.086 8.343 4.841a32.854 32.854 0 0 0 8.549 1.133c3.159 0 6.18-.618 9.064-1.854 2.884-1.236 5.39-3.193 7.519-5.871 2.129-2.678 3.811-6.146 5.047-10.403 1.236-4.257 1.854-9.407 1.854-15.45 0-6.317-.584-11.605-1.751-15.862-1.167-4.257-2.781-7.725-4.841-10.403-2.06-2.678-4.498-4.6-7.313-5.768-2.815-1.167-5.802-1.751-8.961-1.751-3.57 0-6.66.48-9.27 1.442-2.61.961-5.15 2.472-7.622 4.532-2.747 2.61-4.772 5.905-6.077 9.888-1.305 3.983-1.957 9.064-1.957 15.244v3.296zm140.32 56.238c-17.304 0-30.694-4.944-40.17-14.832-9.476-9.888-14.214-24.033-14.214-42.436 0-8.79 1.27-16.72 3.811-23.793 2.54-7.073 6.18-13.047 10.918-17.922 4.738-4.875 10.472-8.618 17.201-11.227 6.73-2.61 14.214-3.914 22.454-3.914 8.377 0 15.93 1.305 22.66 3.914 6.73 2.61 12.463 6.352 17.201 11.227 4.738 4.875 8.343 10.85 10.815 17.922 2.472 7.073 3.708 15.004 3.708 23.793 0 8.927-1.27 16.926-3.811 23.999-2.54 7.073-6.18 13.081-10.918 18.025-4.738 4.944-10.472 8.72-17.201 11.33-6.73 2.61-14.214 3.914-22.454 3.914zm0-23.072c8.24 0 14.386-2.953 18.437-8.858 4.051-5.905 6.077-14.351 6.077-25.338s-2.026-19.364-6.077-25.132c-4.051-5.768-10.197-8.652-18.437-8.652-8.24 0-14.386 2.884-18.437 8.652-4.051 5.768-6.077 14.145-6.077 25.132 0 11.124 1.991 19.604 5.974 25.441s10.163 8.755 18.54 8.755zm86.03-35.432l-35.226-52.324h33.99l18.334 30.694 20.6-30.694h30.076l-34.814 50.676 37.492 56.856h-33.372l-21.836-35.02-22.866 35.02h-31.312l38.934-55.208z" fill="#000" fill-rule="nonzero"></path><g transform="translate(288 72)"><mask id="b" fill="#fff"><use xlink:href="#a"></use></mask></g><path d="M120.084 2.146a16 16 0 0 1 16.009 0L248.169 66.81a15.997 15.997 0 0 1 8.006 13.856v129.326c0 5.718-3.053 11-8.006 13.857l-112.074 64.667a16.024 16.024 0 0 1-16.013 0L8.005 223.85A15.999 15.999 0 0 1 0 209.992V80.666c0-5.716 3.052-11 8.005-13.856L120.084 2.146zm4.003 251.92a8.017 8.017 0 0 0 8.003 0l88.06-50.806a8 8 0 0 0 4.003-6.928V94.729a7.999 7.999 0 0 0-4.003-6.93l-88.06-50.802a7.996 7.996 0 0 0-8.005 0L36.025 87.8a7.995 7.995 0 0 0-4.003 6.93v101.603c0 2.858 1.525 5.5 4.003 6.928l88.062 50.805zm52.033-80.823V80.856l30.02 17.317a4.003 4.003 0 0 1 2.002 3.466v87.76a4 4 0 0 1-2.001 3.467l-30.02 17.32-48.032-27.715-48.034 27.715-30.02-17.32a4 4 0 0 1-2.002-3.466v-87.761c0-1.43.762-2.75 2.001-3.466l30.02-17.317v92.39l48.035-27.716 48.031 27.713z" fill="#106ED4" fill-rule="nonzero"></path><mask id="d" fill="#fff"><use xlink:href="#c"></use></mask><g mask="url(#d)" fill="#106ED4" fill-rule="nonzero"><path d="M0 0h258v292H0z"></path></g></g></svg>
